<?xml version="1.0" encoding="UTF-8" standalone="no"?>
<svg width="96px" height="130px" viewBox="0 0 96 130" version="1.1" xmlns="http://www.w3.org/2000/svg" xmlns:xlink="http://www.w3.org/1999/xlink">
    <!-- Generator: Sketch 41.2 (35397) - http://www.bohemiancoding.com/sketch -->
    <title>Logo</title>
    <desc>Created with Sketch.</desc>
    <defs></defs>
    <g id="Page-1" stroke="none" stroke-width="1" fill="none" fill-rule="evenodd">
        <g id="Logo">
            <g id="cat" transform="translate(57.219512, 33.631579)">
                <g id="Layer_1">
                    <path d="M29.2205438,36.9228665 L9.16447336,36.9128039 L5.24881264,64.2857947 C5.05040763,65.6725961 6.16474639,66.909374 7.61264344,66.909374 L30.7707519,66.909374 C32.2186489,66.909374 33.3329877,65.6725961 33.1345827,64.2857947 L29.2205438,36.9228665 Z" id="Shape" fill="#FF913C"></path>
                    <path d="M8.5433089,41.2548564 C11.7207624,42.8971417 15.3439515,43.8350491 19.1917652,43.8350491 C23.039579,43.8350491 26.662768,42.8971417 29.8402216,41.2548564 L29.2205438,36.9227358 L9.16447336,36.9126732 L8.5433089,41.2548564 Z" id="Shape" fill="#D77431"></path>
                    <path d="M27.5441025,8.06989778 L35.390426,0.483132726 C36.4577314,-0.548865959 38.2828413,0.182040543 38.2828413,1.64163195 L38.2828413,21.9145189 C38.2827061,15.3388433 32.8977941,11.3397014 27.5441025,8.06989778 Z" id="Shape" fill="#FF913C"></path>
                    <path d="M38.2827061,21.9145189 C38.2827061,32.1094427 29.7353426,40.3739265 19.1917652,40.3739265 C8.64818784,40.3739265 0.100824344,32.109312 0.100824344,21.9145189 C0.100824344,11.7197257 8.64805269,4.60877518 19.1917652,4.60877518 C29.7354778,4.60877518 38.2827061,11.719595 38.2827061,21.9145189 Z" id="Shape" fill="#FFAA50"></path>
                    <path d="M10.8394279,21.9145189 C10.8394279,13.0296858 16.1155415,6.49125474 23.1416197,4.95652097 C21.8665837,4.73030979 20.5465417,4.60877518 19.1917652,4.60877518 C15.678591,4.60877518 12.3981506,5.41312518 9.57060895,6.84305168 L2.99310446,0.483132726 C1.92579903,-0.548865959 0.100689191,0.182040543 0.100689191,1.64163195 L0.100689191,21.9145189 C0.100689191,21.4984262 0.100689191,21.5006478 0.100689191,21.9145189 C0.100689191,32.1094427 8.64805269,40.3739265 19.1916301,40.3739265 C20.5465417,40.3739265 21.8665837,40.2329202 23.1414846,39.9735157 C16.1155415,38.2136162 10.8394279,30.7992212 10.8394279,21.9145189 Z" id="Shape" fill="#FF913C"></path>
                    <g id="Group" transform="translate(10.812262, 26.528521)" fill="#FAEBC8">
                        <ellipse id="Oval" cx="4.20326689" cy="3.46177601" rx="4.17610108" ry="3.4611226"></ellipse>
                        <ellipse id="Oval" cx="12.5557394" cy="3.46177601" rx="4.17610108" ry="3.4611226"></ellipse>
                    </g>
                    <ellipse id="Oval" fill="#FF913C" cx="19.1917652" cy="27.6837535" rx="2.3864014" ry="2.30745863"></ellipse>
                    <path d="M27.5393722,54.1227574 C27.4857163,53.4884252 26.9299661,53.0169232 26.2517669,53.0688041 C25.5945165,53.1217305 25.1075593,53.6794828 25.1622964,54.3143378 L25.3882726,56.9366102 C25.6903402,60.4419035 22.8295508,63.4482514 19.1916301,63.4482514 L19.1916301,63.4482514 C15.5538445,63.4482514 12.6929199,60.4419035 12.9949875,56.9366102 L13.2209638,54.3143378 C13.2757009,53.6794828 12.7886085,53.1217305 12.1314932,53.0688041 C11.4557268,53.0175766 10.898625,53.4884252 10.843888,54.1227574 L9.74211846,66.909374 L28.641412,66.909374 L27.5393722,54.1227574 Z" id="Shape" fill="#D77431"></path>
                    <g id="Group" transform="translate(10.812262, 19.602356)" fill="#553732">
                        <path d="M1.22043408,3.46582717 C0.560886096,3.46582717 0.0273009618,2.94923975 0.0273009618,2.31216319 L0.0273009618,1.15849922 C0.0273009618,0.521422661 0.56102125,0.00483524773 1.22043408,0.00483524773 C1.87984692,0.00483524773 2.41356721,0.521422661 2.41356721,1.15849922 L2.41356721,2.31216319 C2.41356721,2.94923975 1.87984692,3.46582717 1.22043408,3.46582717 Z" id="Shape"></path>
                        <path d="M15.5385722,3.46582717 C14.8790242,3.46582717 14.345439,2.94923975 14.345439,2.31216319 L14.345439,1.15849922 C14.345439,0.521422661 14.8791593,0.00483524773 15.5385722,0.00483524773 C16.1981202,0.00483524773 16.7317053,0.521422661 16.7317053,1.15849922 L16.7317053,2.31216319 C16.7318404,2.94923975 16.1981202,3.46582717 15.5385722,3.46582717 Z" id="Shape"></path>
                    </g>
                </g>
            </g>
            <g id="dog">
                <g id="Layer_1">
                    <path d="M14.9675499,95.9300185 L21.5924243,49.6743168 L50.346154,49.6743168 L56.9710284,95.9300185 C57.2688647,98.0099684 55.5907614,99.8644548 53.4104282,99.8644548 L18.5279466,99.8644548 C16.3478169,99.8644548 14.6697136,98.0101645 14.9675499,95.9300185 Z" id="Shape" fill="#D7B48D"></path>
                    <path d="M51.5287456,57.9296142 L50.3463576,49.6743168 L21.5924243,49.6743168 L20.4100363,57.9296142 C24.028453,62.3798718 29.6452031,65.2505124 35.9693909,65.2505124 C42.2935788,65.2505124 47.9103289,62.3798718 51.5287456,57.9296142 Z" id="Shape" fill="#C09B78"></path>
                    <path d="M48.5491604,6.40688876 L54.6689548,0.513272584 C55.2866141,-0.0815589744 56.2747875,-0.175469428 56.9838538,0.315648915 C66.9356195,7.20718619 71.9115023,16.7911499 71.9115023,16.7911499 C71.9115023,16.7911499 68.3173115,28.9059905 59.3317328,32.3673456 L48.5491604,6.40688876 Z" id="Shape" fill="#64463C"></path>
                    <path d="M56.0822016,0.0299964497 C56.3987672,0.0513664694 56.7126864,0.127631953 56.9840574,0.315648915 C66.935823,7.20718619 71.9117058,16.7911499 71.9117058,16.7911499 C71.9117058,16.7911499 68.3175151,28.9059905 59.3319363,32.3673456 C59.3319363,32.3673456 68.1316473,18.7840513 56.0822016,0.0299964497 Z" id="Shape" fill="#553732"></path>
                    <path d="M23.3896214,6.40688876 L17.2696235,0.513272584 C16.6519642,-0.0815589744 15.6639944,-0.175469428 14.9547244,0.315648915 C5.00295884,7.20718619 0.0270760336,16.7911499 0.0270760336,16.7911499 C0.0270760336,16.7911499 3.62126681,28.9059905 12.6068455,32.3673456 L23.3896214,6.40688876 Z" id="Shape" fill="#64463C"></path>
                    <path d="M35.9693909,54.8664473 L35.9693909,54.8664473 C23.0665412,54.8664473 12.6068455,44.7933258 12.6068455,32.3675416 L12.6068455,25.4446355 C12.6068455,13.0188513 23.0665412,2.94553373 35.9691874,2.94553373 L35.9691874,2.94553373 C48.8718335,2.94553373 59.3315292,13.0186552 59.3315292,25.4446355 L59.3315292,32.3675416 C59.3319363,44.7933258 48.872037,54.8664473 35.9693909,54.8664473 Z" id="Shape" fill="#EBC9A0"></path>
                    <path d="M25.186615,32.3673456 L25.186615,25.4446355 C25.186615,15.1205633 32.4161196,6.4421787 42.2591739,3.79445286 C40.2553438,3.25549704 38.15176,2.94572978 35.9691874,2.94572978 C23.0665412,2.94572978 12.606642,13.0188513 12.606642,25.4448316 L12.606642,32.3675416 C12.606642,44.7933258 23.0663377,54.8666434 35.9691874,54.8666434 C38.1515564,54.8666434 40.2551403,54.5568761 42.2591739,54.0179203 C32.4161196,51.3698024 25.186615,42.6914178 25.186615,32.3673456 Z" id="Shape" fill="#D7B48D"></path>
                    <path d="M21.7166076,44.4821862 C21.6429119,45.0503542 21.5924243,45.6253842 21.5924243,46.2129617 C21.5924243,53.8597037 28.0291914,60.0585779 35.9693909,60.0585779 C43.9095905,60.0585779 50.3463576,53.8597037 50.3463576,46.2129617 C50.3463576,45.6255803 50.29587,45.0505503 50.2221743,44.4821862 L21.7166076,44.4821862 Z" id="Shape" fill="#F5DCB4"></path>
                    <path d="M21.7166076,44.4821862 C21.6429119,45.0503542 21.5924243,45.6253842 21.5924243,46.2129617 C21.5924243,50.2967921 23.4394983,53.9561629 26.359842,56.4903728 C26.8594253,56.5535026 27.3653196,56.5972229 27.8824108,56.5972229 C30.7384234,56.5972229 33.3533982,55.600086 35.3841007,53.9540063 C35.7242816,53.6783527 36.2147039,53.6783527 36.5548847,53.9540063 C38.5855872,55.600086 41.2005621,56.5972229 44.0565747,56.5972229 C44.5736658,56.5972229 45.0795601,56.5535026 45.5791435,56.4903728 C48.4994871,53.9561629 50.3465612,50.2967921 50.3465612,46.2129617 C50.3465612,45.6255803 50.2960736,45.0505503 50.2223779,44.4821862 L21.7166076,44.4821862 L21.7166076,44.4821862 Z" id="Shape" fill="#EBC9A0"></path>
                    <g id="Group" transform="translate(19.747182, 37.446548)" fill="#FAEBC8">
                        <ellipse id="Oval" cx="8.13604272" cy="7.90082959" rx="8.08698014" ry="7.78809783"></ellipse>
                        <ellipse id="Oval" cx="24.3083744" cy="7.90082959" rx="8.08698014" ry="7.78809783"></ellipse>
                    </g>
                    <g id="Group" fill="#553732">
                        <ellipse id="Oval" cx="35.9693909" cy="42.7516067" rx="3.59419077" ry="3.46135503"></ellipse>
                        <path d="M15.8565803,0.0299964497 C15.5400146,0.0513664694 15.2260955,0.127631953 14.9547244,0.315648915 C5.00295884,7.20718619 0.0270760336,16.7911499 0.0270760336,16.7911499 C0.0270760336,16.7911499 3.62126681,28.9059905 12.6068455,32.3673456 C12.6068455,32.3673456 3.80713462,18.7840513 15.8565803,0.0299964497 Z" id="Shape"></path>
                    </g>
                    <path d="M48.5422387,82.4012276 C48.4510353,81.4487913 47.5945776,80.7575006 46.5888963,80.83357 C45.6009265,80.9206185 44.8725201,81.7622836 44.9620949,82.7139357 L45.1746316,84.9650418 C45.6666825,90.1779542 41.404752,94.6723243 35.9695945,94.6723243 L35.9695945,94.6723243 C30.534437,94.6723243 26.2725065,90.1777582 26.7645574,84.9650418 L26.9770941,82.7139357 C27.0666689,81.7624797 26.3382626,80.9206185 25.3502927,80.83357 C24.3411506,80.7541677 23.4881538,81.4487913 23.3969503,82.4012276 L21.7481623,99.8644548 L50.1906195,99.8644548 L48.5422387,82.4012276 Z" id="Shape" fill="#C09B78"></path>
                    <g id="Group" transform="translate(23.208029, 27.055621)" fill="#553732">
                        <path d="M1.97858624,5.31172426 C0.985323328,5.31172426 0.181389067,4.53671795 0.181389067,3.58094872 L0.181389067,1.85017318 C0.181389067,0.894403945 0.985119748,0.119397633 1.97858624,0.119397633 C2.97184916,0.119397633 3.77578342,0.894403945 3.77578342,1.85017318 L3.77578342,3.58094872 C3.77578342,4.536914 2.97205274,5.31172426 1.97858624,5.31172426 Z" id="Shape"></path>
                        <path d="M23.5441381,5.31172426 C22.5508751,5.31172426 21.7469409,4.53671795 21.7469409,3.58094872 L21.7469409,1.85017318 C21.7469409,0.894403945 22.5506716,0.119397633 23.5441381,0.119397633 C24.5376045,0.119397633 25.3413352,0.894403945 25.3413352,1.85017318 L25.3413352,3.58094872 C25.3411316,4.536914 24.537401,5.31172426 23.5441381,5.31172426 Z" id="Shape"></path>
                    </g>
                </g>
            </g>
            <text id="MPAG" font-family="AbadiMT-CondensedExtraBold, Abadi MT Condensed Extra Bold" font-size="35" font-style="condensed" font-weight="bold" fill="#FFFFFF">
                <tspan x="18.0051165" y="128.649123">MPAG</tspan>
            </text>
        </g>
    </g>
</svg>